<?xml version="1.0" standalone="no"?>
<!DOCTYPE svg PUBLIC "-//W3C//DTD SVG 20010904//EN"
 "http://www.w3.org/TR/2001/REC-SVG-20010904/DTD/svg10.dtd">
<svg version="1.0" xmlns="http://www.w3.org/2000/svg"
 width="402.000000pt" height="400.000000pt" viewBox="0 0 402.000000 400.000000"
 preserveAspectRatio="xMidYMid meet">
<metadata>
Created by potrace 1.16, written by Peter Selinger 2001-2019
</metadata>
<g transform="translate(0.000000,400.000000) scale(0.100000,-0.100000)"
fill="#000000" stroke="none">
<path d="M3843 3840 c-3 -39 13 -39 19 0 3 17 0 30 -6 30 -6 0 -12 -14 -13
-30z"/>
<path d="M3807 3747 c-11 -29 -9 -43 4 -30 6 6 9 19 7 29 -3 18 -4 18 -11 1z"/>
<path d="M3790 3659 c0 -11 5 -17 10 -14 6 3 10 13 10 21 0 8 -4 14 -10 14 -5
0 -10 -9 -10 -21z"/>
<path d="M3820 3575 c0 -8 2 -15 4 -15 2 0 6 7 10 15 3 8 1 15 -4 15 -6 0 -10
-7 -10 -15z"/>
<path d="M3887 3475 c-14 -217 -20 -550 -9 -540 6 6 13 97 16 235 3 124 8 252
11 285 3 33 2 74 -3 90 -7 24 -10 10 -15 -70z"/>
<path d="M2065 3485 c-3 -8 -7 -22 -10 -30 -5 -17 -65 -21 -65 -5 0 5 -7 6
-17 3 -11 -4 -14 -3 -9 5 5 9 -3 10 -31 6 -21 -4 -58 -7 -83 -7 -25 0 -50 -4
-57 -9 -7 -5 -25 -8 -40 -6 -16 1 -27 -2 -26 -8 1 -6 -8 -9 -21 -7 -18 4 -23
0 -22 -18 1 -18 -10 -29 -51 -49 -29 -15 -61 -34 -71 -43 -10 -10 -21 -15 -24
-12 -3 3 -11 -2 -19 -12 -9 -11 -10 -14 -1 -9 8 5 12 0 12 -16 0 -29 -56 -75
-113 -92 -24 -7 -41 -18 -39 -25 3 -16 -17 -43 -28 -36 -7 5 -28 -42 -81 -180
-29 -77 -25 -139 16 -236 28 -64 33 -84 23 -91 -7 -4 -16 -8 -20 -8 -11 0 -9
-70 2 -95 10 -23 10 -23 16 25 5 39 22 64 20 28 -1 -13 2 -29 8 -37 10 -13 12
-26 15 -99 2 -68 19 -19 26 76 10 144 24 253 34 266 5 6 32 51 61 101 49 85
76 147 83 192 5 35 35 71 87 105 27 18 50 36 50 40 0 5 9 8 20 8 10 0 23 6 27
14 7 11 18 11 73 -1 42 -8 90 -11 135 -7 62 6 74 10 101 39 21 21 44 34 70 38
21 3 33 3 27 0 -7 -2 -13 -11 -13 -19 0 -10 14 -14 50 -14 50 0 150 -41 150
-61 0 -5 6 -9 13 -9 8 0 33 -18 58 -40 24 -22 50 -40 57 -40 6 0 12 -7 12 -15
0 -9 6 -12 15 -9 24 10 46 -16 41 -47 -6 -39 12 -91 42 -126 39 -44 59 -99 83
-228 18 -101 25 -121 40 -121 9 0 15 4 13 8 -3 4 0 8 5 8 14 0 14 37 1 45 -6
4 -8 11 -4 16 3 5 0 17 -8 26 -11 14 -11 16 1 8 11 -6 13 -4 8 9 -4 9 -9 81
-13 159 -6 153 -18 217 -37 198 -9 -9 -9 -14 -1 -19 14 -8 17 -149 4 -157 -10
-6 -25 33 -21 54 1 8 -2 10 -11 5 -8 -5 -6 2 5 19 23 35 22 45 -8 59 -14 6
-25 17 -25 24 0 7 -23 34 -50 60 -28 26 -49 53 -46 60 5 14 -42 59 -72 68 -11
4 -23 17 -25 29 l-4 22 -2 -22 c0 -13 -6 -23 -11 -23 -6 0 -9 3 -9 8 3 19 -2
33 -10 28 -12 -8 -41 39 -41 66 0 22 -24 58 -77 114 -13 14 -34 24 -50 24 -29
0 -97 21 -109 33 -12 11 -24 8 -29 -8z m490 -465 c0 -7 -5 -15 -10 -17 -6 -2
-11 6 -11 17 0 11 5 19 11 17 5 -2 10 -10 10 -17z m-1269 -216 c-6 -31 -13
-40 -23 -29 -5 4 -2 10 5 12 6 3 10 9 6 14 -3 5 -2 14 1 19 11 18 16 11 11
-16z"/>
<path d="M3973 3395 c0 -22 2 -30 4 -17 2 12 2 30 0 40 -3 9 -5 -1 -4 -23z"/>
<path d="M3804 3403 c-3 -10 -9 -29 -14 -43 -4 -14 -8 -40 -9 -58 -1 -18 -8
-51 -15 -75 -16 -48 -26 -100 -33 -174 -3 -29 -9 -53 -14 -53 -5 0 -9 -19 -9
-43 0 -23 -7 -53 -16 -65 -19 -28 -11 -28 21 0 14 12 25 32 25 44 0 13 4 25 9
28 4 3 6 -5 4 -18 -6 -32 15 -43 23 -12 3 13 7 53 9 88 2 34 10 108 18 163 25
169 30 235 17 235 -6 0 -13 -8 -16 -17z"/>
<path d="M3971 3194 c0 -11 3 -14 6 -6 3 7 2 16 -1 19 -3 4 -6 -2 -5 -13z"/>
<path d="M3972 3110 c0 -14 2 -19 5 -12 2 6 2 18 0 25 -3 6 -5 1 -5 -13z"/>
<path d="M2584 3075 c16 -16 31 -22 42 -18 13 5 10 10 -17 24 -47 25 -54 23
-25 -6z"/>
<path d="M3971 3004 c0 -11 3 -14 6 -6 3 7 2 16 -1 19 -3 4 -6 -2 -5 -13z"/>
<path d="M3881 2904 c0 -11 3 -14 6 -6 3 7 2 16 -1 19 -3 4 -6 -2 -5 -13z"/>
<path d="M2220 2888 c-70 -9 -111 -32 -117 -63 -10 -58 -7 -107 7 -115 9 -5
28 -20 43 -34 30 -28 49 -34 117 -38 l45 -3 25 53 26 53 27 -25 c34 -31 32
-31 69 -4 l31 21 -23 19 c-12 10 -26 15 -31 12 -5 -3 -9 -2 -9 3 0 14 -63 37
-97 36 -35 -1 -45 14 -15 23 36 12 58 26 75 50 l18 24 -63 -1 c-35 -1 -92 -6
-128 -11z m167 -124 c-8 -8 -57 11 -57 22 0 10 7 9 29 -4 16 -9 29 -17 28 -18z"/>
<path d="M1685 2870 c-70 -14 -87 -19 -112 -35 -67 -44 -86 -94 -35 -96 15 -1
20 -3 10 -6 -9 -2 -24 -15 -33 -29 -22 -33 -5 -64 35 -64 16 0 55 -12 86 -26
69 -31 133 -28 190 11 20 14 47 25 59 25 12 0 32 11 45 25 13 14 20 25 15 25
-5 0 -4 5 3 12 20 20 13 60 -16 102 -25 37 -33 41 -97 52 -80 14 -94 14 -150
4z m16 -81 c26 -26 24 -29 -18 -29 -20 0 -52 -5 -70 -12 -28 -10 -36 -10 -49
3 -13 14 -13 17 0 29 10 7 16 8 16 2 0 -6 -6 -13 -12 -15 -10 -4 -10 -6 0 -6
7 -1 15 7 19 17 13 35 25 43 61 36 19 -4 43 -15 53 -25z m124 -109 c3 -5 1
-10 -4 -10 -6 0 -11 5 -11 10 0 6 2 10 4 10 3 0 8 -4 11 -10z"/>
<path d="M3750 2843 c0 -24 3 -33 9 -25 7 12 4 62 -5 62 -2 0 -4 -17 -4 -37z"/>
<path d="M3865 2818 c-10 -57 -13 -278 -4 -283 14 -9 21 42 26 183 2 88 1 142
-6 142 -5 0 -12 -19 -16 -42z"/>
<path d="M3752 2780 c0 -14 2 -19 5 -12 2 6 2 18 0 25 -3 6 -5 1 -5 -13z"/>
<path d="M3972 2730 c0 -14 2 -19 5 -12 2 6 2 18 0 25 -3 6 -5 1 -5 -13z"/>
<path d="M3747 2696 c-4 -10 -5 -21 -2 -24 9 -9 17 6 13 25 -3 17 -4 17 -11
-1z"/>
<path d="M2340 2650 c0 -5 7 -10 16 -10 8 0 12 5 9 10 -3 6 -10 10 -16 10 -5
0 -9 -4 -9 -10z"/>
<path d="M3717 2457 c-3 -23 -2 -46 2 -50 5 -5 11 12 13 38 4 59 -7 69 -15 12z"/>
<path d="M1960 2463 c-46 -24 -55 -34 -58 -59 -4 -36 17 -57 56 -57 50 1 116
13 126 23 5 5 26 10 46 10 46 0 59 10 53 40 -3 19 -16 30 -49 44 -76 31 -112
31 -174 -1z"/>
<path d="M3861 2453 c0 -10 4 -27 9 -38 7 -17 9 -15 9 12 1 17 -3 35 -9 38 -5
3 -10 -2 -9 -12z"/>
<path d="M3857 2343 c-4 -3 -7 -13 -7 -22 1 -13 3 -13 11 2 11 19 8 33 -4 20z"/>
<path d="M2344 2305 c10 -40 24 -53 32 -31 4 12 -1 25 -16 39 l-22 22 6 -30z"/>
<path d="M2070 2269 c-19 -5 -69 -15 -110 -24 -41 -8 -97 -21 -125 -29 -54
-15 -71 -9 -78 27 -4 21 -4 20 -6 -2 -1 -23 -2 -23 -20 -7 -18 16 -20 16 -42
-16 -31 -44 -69 -73 -90 -70 -10 2 -19 -6 -23 -20 l-6 -23 -14 25 c-14 24 -15
24 -18 -24 -2 -36 -8 -52 -23 -60 -32 -17 -33 -26 -15 -64 10 -20 16 -41 13
-45 -7 -11 -31 11 -39 36 -18 61 -87 188 -114 211 -27 22 -29 28 -18 45 9 15
10 23 1 32 -8 8 -13 -2 -21 -38 -19 -87 -22 -113 -11 -113 6 0 6 -6 0 -17 -5
-10 -23 -61 -41 -113 -18 -52 -52 -131 -75 -175 -24 -44 -46 -95 -50 -114 -4
-19 -20 -56 -36 -81 -16 -26 -29 -57 -29 -69 0 -23 -52 -61 -84 -61 -10 0 -73
-22 -140 -48 -66 -27 -152 -57 -191 -67 -38 -10 -72 -21 -75 -24 -3 -3 -36
-27 -75 -53 -98 -65 -248 -224 -317 -337 l-58 -92 0 -415 0 -414 1920 0 1920
0 0 551 0 551 -34 51 c-64 96 -269 258 -354 280 -18 4 -22 2 -18 -9 9 -23 -11
-16 -43 17 -43 42 -121 65 -121 34 0 -9 -9 -15 -22 -15 -20 0 -20 1 -4 19 16
18 14 19 -44 25 -34 4 -68 10 -77 13 -11 4 -14 2 -11 -8 2 -8 20 -17 39 -20
l34 -5 -35 -11 c-19 -6 -27 -12 -17 -12 17 -1 26 -41 9 -41 -12 0 -42 34 -42
48 0 7 -11 12 -24 12 -14 0 -31 7 -39 15 -17 16 -81 10 -71 -7 3 -5 15 -6 26
-2 16 5 20 3 15 -9 -3 -9 1 -21 9 -27 15 -13 19 -40 6 -40 -5 0 -14 10 -21 23
-7 12 -41 42 -77 66 -35 24 -64 47 -64 52 0 5 15 10 33 10 26 1 22 4 -23 13
-30 7 -81 24 -112 39 l-58 27 0 90 c0 90 -11 130 -52 191 -10 15 -19 36 -21
47 -2 11 -8 26 -13 34 -6 7 -21 40 -34 73 -34 88 -46 97 -55 44 -4 -24 -11
-48 -15 -54 -4 -5 -14 -30 -21 -55 -7 -25 -17 -49 -23 -55 -14 -13 -16 -33
-21 -173 -3 -96 -7 -117 -26 -145 -35 -51 -62 -78 -86 -88 -12 -4 -25 -20 -29
-34 -5 -21 -11 -25 -28 -21 -11 3 -29 6 -38 6 -10 0 -18 6 -18 14 0 8 8 22 18
31 102 93 156 179 174 273 23 123 25 140 11 135 -20 -8 -16 14 5 22 14 6 12 9
-13 17 -16 5 -37 10 -46 11 -9 1 -29 15 -45 30 -29 29 -51 31 -46 3 5 -28 -12
-18 -28 17 l-15 32 -3 -49 c-2 -31 1 -52 9 -57 28 -17 -84 -99 -135 -99 -14 0
-28 -5 -31 -10 -4 -7 -13 -6 -27 1 -28 15 -112 15 -181 0 -51 -11 -61 -10 -76
3 -10 9 -23 16 -29 16 -7 0 -12 6 -12 14 0 8 -7 16 -15 20 -17 6 -21 66 -5 66
6 0 10 -6 10 -14 0 -22 81 -31 151 -16 33 7 83 14 112 15 29 1 55 3 58 4 3 0
3 21 -1 46 -4 25 -4 45 0 45 4 0 12 11 18 24 13 29 -2 39 -33 22 -11 -6 -78
-12 -150 -13 -71 -1 -133 -3 -138 -3 -4 0 -5 -10 -2 -22 4 -17 -2 -28 -20 -41
-14 -10 -25 -13 -25 -7 0 5 -7 10 -15 10 -18 0 -20 -36 -2 -43 7 -4 6 -6 -4
-6 -16 -1 -28 22 -35 66 -2 18 9 28 69 57 72 35 73 35 227 38 152 2 230 -8
238 -31 2 -6 11 -11 21 -11 18 0 27 45 13 68 -8 12 -201 66 -210 58 -2 -3 -14
-1 -26 3 -11 4 -37 4 -56 0z m70 -25 c0 -2 -24 -3 -52 -3 -52 2 -53 2 -13 8
37 6 65 4 65 -5z m-860 -392 c0 -17 -10 -38 -25 -52 -30 -28 -31 -20 -7 37 20
50 32 55 32 15z m300 -92 c0 -34 25 -71 84 -129 36 -34 56 -61 55 -75 -1 -17
-2 -17 -6 -3 -5 19 -23 24 -23 6 0 -8 -4 -8 -12 -1 -7 5 -24 12 -38 14 -14 1
-25 8 -25 13 0 6 -8 21 -18 35 -9 13 -17 19 -17 12 0 -7 -4 -11 -9 -8 -13 8
-13 156 -1 156 6 0 10 -9 10 -20z m-381 -46 c-35 -38 -42 -28 -12 18 21 31 29
37 31 24 2 -10 -6 -29 -19 -42z m1202 -206 c3 -39 -4 -95 -14 -106 -6 -8 -11
-55 -12 -107 -1 -79 -5 -100 -27 -144 -44 -84 -79 -121 -113 -120 -52 1 -163
78 -244 170 -70 81 -128 179 -117 198 3 5 47 9 97 10 50 1 99 5 108 10 9 5 38
12 66 16 27 4 58 13 69 21 11 8 32 14 46 14 14 0 36 9 50 20 14 11 32 20 40
19 11 0 10 -3 -4 -14 -19 -15 -19 -15 3 -15 14 0 25 7 28 20 6 22 22 27 24 8z
m1056 -44 c-3 -3 -12 -4 -19 -1 -8 3 -5 6 6 6 11 1 17 -2 13 -5z m-2557 -65
c0 -6 6 -9 14 -6 10 4 12 0 9 -14 -3 -10 -9 -19 -13 -19 -12 0 -40 36 -33 43
10 11 23 8 23 -4z m1330 -459 c0 -5 -5 -10 -11 -10 -5 0 -7 5 -4 10 3 6 8 10
11 10 2 0 4 -4 4 -10z m110 -230 c0 -18 -2 -19 -20 -8 -11 7 -20 16 -20 20 0
5 9 8 20 8 13 0 20 -7 20 -20z m35 -381 c0 -8 -10 -15 -22 -17 -25 -4 -30 7
-11 26 15 15 33 10 33 -9z"/>
<path d="M2240 1320 c0 -13 30 -13 50 0 11 7 7 10 -17 10 -18 0 -33 -4 -33
-10z"/>
<path d="M3672 2245 c0 -16 2 -22 5 -12 2 9 2 23 0 30 -3 6 -5 -1 -5 -18z"/>
<path d="M3846 2262 c-2 -4 -1 -14 5 -22 7 -12 9 -10 9 8 0 23 -5 28 -14 14z"/>
<path d="M3660 2141 c0 -6 5 -13 10 -16 6 -3 10 1 10 9 0 9 -4 16 -10 16 -5 0
-10 -4 -10 -9z"/>
<path d="M2405 2120 c3 -5 10 -10 16 -10 5 0 9 5 9 10 0 6 -7 10 -16 10 -8 0
-12 -4 -9 -10z"/>
<path d="M3851 2104 c0 -11 3 -14 6 -6 3 7 2 16 -1 19 -3 4 -6 -2 -5 -13z"/>
<path d="M3666 2097 c-5 -10 -6 -66 -2 -125 3 -59 2 -133 -3 -165 -7 -49 -6
-56 6 -44 11 10 13 50 11 183 -2 107 -6 162 -12 151z"/>
<path d="M3870 1754 c-94 -18 -93 -18 -107 -27 -8 -5 -13 -3 -13 3 0 6 -4 9
-9 6 -4 -3 -29 -8 -54 -10 -25 -2 -61 -11 -79 -20 -18 -8 -44 -17 -58 -19 -14
-2 -4 -5 22 -6 26 0 50 4 53 10 4 6 13 8 21 5 8 -3 74 3 147 14 73 11 144 20
160 20 20 0 27 5 27 20 0 23 -7 24 -110 4z"/>
</g>
</svg>
